<?xml version="1.0" standalone="no"?><!-- Generator: Gravit.io --><svg xmlns="http://www.w3.org/2000/svg" xmlns:xlink="http://www.w3.org/1999/xlink" style="isolation:isolate"  width="17px" height="16px"><path d=" M 34.188 -45.06 C 32.865 -45.06 31.708 -43.903 31.708 -42.58 L 31.708 -41.443 C 26.491 -40.316 22.617 -35.77 22.617 -30.183 L 22.617 -22.744 L 19.311 -18.921 L 19.311 -16.959 L 49.065 -16.959 L 49.065 -18.923 L 45.759 -22.744 L 45.759 -30.183 C 45.759 -35.768 41.884 -40.314 36.667 -41.445 L 36.667 -42.58 C 36.667 -43.903 35.51 -45.06 34.188 -45.06 Z  M 30.882 -15.306 C 30.882 -13.484 32.366 -12 34.188 -12 C 36.009 -12 37.494 -13.484 37.494 -15.306 L 30.882 -15.306 Z " fill="rgb(100,100,100)"/><path d=" M 2.455 0.746 C 1.458 0.746 0.641 1.563 0.641 2.559 L 0.641 13.441 C 0.641 14.437 1.458 15.254 2.455 15.254 L 14.545 15.254 C 15.542 15.254 16.359 14.437 16.359 13.441 L 16.359 2.559 C 16.359 1.563 15.542 0.746 14.545 0.746 L 2.455 0.746 Z  M 2.455 1.955 L 14.545 1.955 C 14.885 1.955 15.15 2.22 15.15 2.559 L 15.15 3.164 L 1.85 3.164 L 1.85 2.559 C 1.85 2.22 2.115 1.955 2.455 1.955 Z  M 1.85 4.373 L 15.15 4.373 L 15.15 11.627 L 1.85 11.627 L 1.85 4.373 Z  M 1.85 12.836 L 15.15 12.836 L 15.15 13.441 C 15.15 13.78 14.885 14.045 14.545 14.045 L 2.455 14.045 C 2.294 14.047 2.139 13.984 2.025 13.87 C 1.911 13.757 1.848 13.602 1.85 13.441 L 1.85 12.836 Z " fill="rgb(3,219,203)"/></svg>