<?xml version="1.0" standalone="no"?><!-- Generator: Gravit.io --><svg xmlns="http://www.w3.org/2000/svg" xmlns:xlink="http://www.w3.org/1999/xlink" style="isolation:isolate" viewBox="0 0 439.37 85.039" width="439.37px" height="85.039px"><path d=" M 400.443 16.792 C 400.443 11.199 404.984 6.658 410.577 6.658 C 416.17 6.658 420.711 11.199 420.711 16.792 C 420.711 22.385 416.17 26.926 410.577 26.926 C 404.984 26.926 400.443 22.385 400.443 16.792 L 400.443 16.792 Z  M 396.408 9.779 L 24.642 9.779 C 16.052 9.779 9.077 16.753 9.077 25.344 L 9.077 67.989 C 9.077 76.579 16.052 83.553 24.642 83.553 L 400.323 83.553 C 408.913 83.553 415.888 76.579 415.888 67.989 L 415.888 31.685 C 414.228 32.277 412.44 32.6 410.577 32.6 C 401.852 32.6 394.769 25.517 394.769 16.792 C 394.769 14.274 395.359 11.893 396.408 9.779 L 396.408 9.779 Z  M 421.401 5.932 C 421.401 3.478 423.393 1.486 425.847 1.486 C 428.301 1.486 430.293 3.478 430.293 5.932 C 430.293 8.386 428.301 10.378 425.847 10.378 C 423.393 10.378 421.401 8.386 421.401 5.932 Z " fill-rule="evenodd" fill="none" vector-effect="non-scaling-stroke" stroke-width="1" stroke="rgb(185,185,185)" stroke-linejoin="miter" stroke-linecap="square" stroke-miterlimit="3"/></svg>