<?xml version="1.0" encoding="UTF-8" standalone="no"?><!-- Generator: Gravit.io --><svg xmlns="http://www.w3.org/2000/svg" xmlns:xlink="http://www.w3.org/1999/xlink" style="isolation:isolate" viewBox="0 0 22 22" width="22pt" height="22pt"><path d=" M 4.079 1.004 L 4.079 2.541 L 3.31 2.541 C 2.043 2.541 1.004 3.581 1.004 4.848 L 1.004 18.69 C 1.004 19.957 2.043 20.996 3.31 20.996 L 18.69 20.996 C 19.957 20.996 20.996 19.957 20.996 18.69 L 20.996 4.848 C 20.996 3.581 19.957 2.541 18.69 2.541 L 17.921 2.541 L 17.921 1.004 L 16.383 1.004 L 16.383 2.541 L 5.617 2.541 L 5.617 1.004 L 4.079 1.004 Z  M 3.31 4.079 L 4.079 4.079 L 4.079 5.617 L 5.617 5.617 L 5.617 4.079 L 16.383 4.079 L 16.383 5.617 L 17.921 5.617 L 17.921 4.079 L 18.69 4.079 C 19.122 4.079 19.459 4.416 19.459 4.848 L 19.459 7.155 L 2.541 7.155 L 2.541 4.848 C 2.541 4.416 2.878 4.079 3.31 4.079 Z  M 2.541 8.693 L 19.459 8.693 L 19.459 18.69 C 19.459 19.122 19.122 19.459 18.69 19.459 L 3.31 19.459 C 3.106 19.461 2.909 19.381 2.764 19.236 C 2.619 19.091 2.539 18.894 2.541 18.69 L 2.541 8.693 Z  M 7.155 10.231 L 7.155 11.769 L 8.693 11.769 L 8.693 10.231 L 7.155 10.231 Z  M 10.231 10.231 L 10.231 11.769 L 11.769 11.769 L 11.769 10.231 L 10.231 10.231 Z  M 13.307 10.231 L 13.307 11.769 L 14.845 11.769 L 14.845 10.231 L 13.307 10.231 Z  M 16.383 10.231 L 16.383 11.769 L 17.921 11.769 L 17.921 10.231 L 16.383 10.231 Z  M 4.079 13.307 L 4.079 14.845 L 5.617 14.845 L 5.617 13.307 L 4.079 13.307 Z  M 7.155 13.307 L 7.155 14.845 L 8.693 14.845 L 8.693 13.307 L 7.155 13.307 Z  M 10.231 13.307 L 10.231 14.845 L 11.769 14.845 L 11.769 13.307 L 10.231 13.307 Z  M 13.307 13.307 L 13.307 14.845 L 14.845 14.845 L 14.845 13.307 L 13.307 13.307 Z  M 16.383 13.307 L 16.383 14.845 L 17.921 14.845 L 17.921 13.307 L 16.383 13.307 Z  M 4.079 16.383 L 4.079 17.921 L 5.617 17.921 L 5.617 16.383 L 4.079 16.383 Z  M 7.155 16.383 L 7.155 17.921 L 8.693 17.921 L 8.693 16.383 L 7.155 16.383 Z  M 10.231 16.383 L 10.231 17.921 L 11.769 17.921 L 11.769 16.383 L 10.231 16.383 Z " fill="rgb(5,196,192)"/></svg>