<?xml version="1.0" standalone="no"?><!-- Generator: Gravit.io --><svg xmlns="http://www.w3.org/2000/svg" xmlns:xlink="http://www.w3.org/1999/xlink" style="isolation:isolate" viewBox="472.22 337.873 36.53 32.677" width="36.53" height="32.677"><g><ellipse vector-effect="non-scaling-stroke" cx="488.26067791529164" cy="353.96012471042053" rx="15.53903990099451" ry="16.08678425276247" fill="rgb(255,255,255)"/><path d=" M 474.36 346.73 C 474.53 346.73 474.69 346.82 474.79 346.96 C 474.88 347.11 474.89 347.29 474.81 347.45 C 473.76 349.56 473.22 351.88 473.22 354.24 C 473.22 358.3 474.84 362.19 477.71 365.06 C 480.58 367.93 484.47 369.55 488.53 369.55 C 490.28 369.55 492.02 369.25 493.67 368.66 C 493.83 368.61 494 368.63 494.13 368.72 C 494.26 368.82 494.34 368.97 494.34 369.13 L 493.34 369.82 C 491.78 370.3 490.16 370.55 488.53 370.55 C 484.21 370.55 480.06 368.83 477 365.77 C 473.94 362.71 472.22 358.56 472.22 354.24 C 472.22 352 472.68 349.78 473.58 347.73 L 473.58 347.73 L 474.36 346.73 Z  M 478.9 354.24 C 478.9 351.68 479.91 349.23 481.72 347.43 C 483.52 345.62 485.98 344.6 488.53 344.6 C 491.08 344.6 493.54 345.62 495.34 347.43 C 497.15 349.23 498.16 351.68 498.16 354.24 C 498.16 356.79 497.15 359.24 495.34 361.05 C 493.54 362.86 491.08 363.87 488.53 363.87 C 485.98 363.87 483.52 362.86 481.72 361.05 C 479.91 359.24 478.9 356.79 478.9 354.24 L 478.9 354.24 L 478.9 354.24 Z  M 499.85 343.38 C 499.85 342.33 500.27 341.33 501.01 340.59 C 501.75 339.85 502.75 339.43 503.8 339.43 C 504.85 339.43 505.85 339.85 506.59 340.59 C 507.33 341.33 507.75 342.33 507.75 343.38 C 507.75 344.42 507.33 345.43 506.59 346.17 C 505.85 346.91 504.85 347.32 503.8 347.32 C 502.75 347.32 501.75 346.91 501.01 346.17 C 500.27 345.43 499.85 344.42 499.85 343.38 L 499.85 343.38 L 499.85 343.38 Z  M 477.9 354.24 C 477.9 351.42 479.02 348.71 481.01 346.72 C 483 344.73 485.71 343.6 488.53 343.6 C 491.35 343.6 494.06 344.73 496.05 346.72 C 498.04 348.71 499.16 351.42 499.16 354.24 C 499.16 357.06 498.04 359.76 496.05 361.76 C 494.06 363.75 491.35 364.87 488.53 364.87 C 485.71 364.87 483 363.75 481.01 361.76 C 479.02 359.76 477.9 357.06 477.9 354.24 L 477.9 354.24 L 477.9 354.24 Z  M 498.85 343.38 C 498.85 342.07 499.38 340.81 500.3 339.88 C 501.23 338.95 502.49 338.43 503.8 338.43 C 505.11 338.43 506.37 338.95 507.3 339.88 C 508.22 340.81 508.75 342.07 508.75 343.38 C 508.75 344.69 508.22 345.95 507.3 346.88 C 506.37 347.8 505.11 348.32 503.8 348.32 C 502.49 348.32 501.23 347.8 500.3 346.88 C 499.38 345.95 498.85 344.69 498.85 343.38 L 498.85 343.38 L 498.85 343.38 Z " fill-rule="evenodd" fill="rgb(185,185,185)"/></g></svg>