<?xml version="1.0" encoding="UTF-8" standalone="no"?><!-- Generator: Gravit.io --><svg xmlns="http://www.w3.org/2000/svg" xmlns:xlink="http://www.w3.org/1999/xlink" style="isolation:isolate" viewBox="0 0 36.53 32.677" width="36.53pt" height="32.677pt"><defs><clipPath id="_clipPath_LgUqMC5M08YoyxLHAaAMOD5x4OiCvuKs"><rect width="36.53" height="32.677"/></clipPath></defs><g clip-path="url(#_clipPath_LgUqMC5M08YoyxLHAaAMOD5x4OiCvuKs)"><ellipse vector-effect="non-scaling-stroke" cx="16.04067791529161" cy="16.08712471042054" rx="15.53903990099451" ry="16.08678425276247" fill="rgb(238,238,238)"/><path d=" M 2.14 8.857 C 2.31 8.857 2.47 8.947 2.57 9.087 C 2.66 9.237 2.67 9.417 2.59 9.577 C 1.54 11.687 1 14.007 1 16.367 C 1 20.427 2.62 24.317 5.49 27.187 C 8.36 30.057 12.25 31.677 16.31 31.677 C 18.06 31.677 19.8 31.377 21.45 30.787 C 21.61 30.737 21.78 30.757 21.91 30.847 C 22.04 30.947 22.12 31.097 22.12 31.257 L 21.12 31.947 C 19.56 32.427 17.94 32.677 16.31 32.677 C 11.99 32.677 7.84 30.957 4.78 27.897 C 1.72 24.837 0 20.687 0 16.367 C 0 14.127 0.46 11.907 1.36 9.857 L 1.36 9.857 L 2.14 8.857 Z  M 6.68 16.367 C 6.68 13.807 7.69 11.357 9.5 9.557 C 11.3 7.747 13.76 6.727 16.31 6.727 C 18.86 6.727 21.32 7.747 23.12 9.557 C 24.93 11.357 25.94 13.807 25.94 16.367 C 25.94 18.917 24.93 21.367 23.12 23.177 C 21.32 24.987 18.86 25.997 16.31 25.997 C 13.76 25.997 11.3 24.987 9.5 23.177 C 7.69 21.367 6.68 18.917 6.68 16.367 L 6.68 16.367 L 6.68 16.367 Z  M 27.63 5.507 C 27.63 4.457 28.05 3.457 28.79 2.717 C 29.53 1.977 30.53 1.557 31.58 1.557 C 32.63 1.557 33.63 1.977 34.37 2.717 C 35.11 3.457 35.53 4.457 35.53 5.507 C 35.53 6.547 35.11 7.557 34.37 8.297 C 33.63 9.037 32.63 9.447 31.58 9.447 C 30.53 9.447 29.53 9.037 28.79 8.297 C 28.05 7.557 27.63 6.547 27.63 5.507 L 27.63 5.507 L 27.63 5.507 Z  M 5.68 16.367 C 5.68 13.547 6.8 10.837 8.79 8.847 C 10.78 6.857 13.49 5.727 16.31 5.727 C 19.13 5.727 21.84 6.857 23.83 8.847 C 25.82 10.837 26.94 13.547 26.94 16.367 C 26.94 19.187 25.82 21.887 23.83 23.887 C 21.84 25.877 19.13 26.997 16.31 26.997 C 13.49 26.997 10.78 25.877 8.79 23.887 C 6.8 21.887 5.68 19.187 5.68 16.367 L 5.68 16.367 L 5.68 16.367 Z  M 26.63 5.507 C 26.63 4.197 27.16 2.937 28.08 2.007 C 29.01 1.077 30.27 0.557 31.58 0.557 C 32.89 0.557 34.15 1.077 35.08 2.007 C 36 2.937 36.53 4.197 36.53 5.507 C 36.53 6.817 36 8.077 35.08 9.007 C 34.15 9.927 32.89 10.447 31.58 10.447 C 30.27 10.447 29.01 9.927 28.08 9.007 C 27.16 8.077 26.63 6.817 26.63 5.507 L 26.63 5.507 L 26.63 5.507 Z " fill-rule="evenodd" fill="rgb(185,185,185)"/><ellipse vector-effect="non-scaling-stroke" cx="16.309999999999945" cy="16.408102495063673" rx="9.5" ry="9.68110249506364" fill="rgb(255,255,255)"/><ellipse vector-effect="non-scaling-stroke" cx="31.629999999999995" cy="5.507000000000005" rx="4" ry="4.007542279516036" fill="rgb(255,255,255)"/></g></svg>