<?xml version="1.0" encoding="UTF-8" standalone="no"?><!-- Generator: Gravit.io --><svg xmlns="http://www.w3.org/2000/svg" xmlns:xlink="http://www.w3.org/1999/xlink" style="isolation:isolate" viewBox="0 0 45.354 45.354" width="45.354pt" height="45.354pt"><g><path d=" M 17.058 29.731 L 31.002 22.666 L 22.106 18.165 L 17.058 29.626 L 17.058 29.731 Z " fill="rgb(255,153,0)"/><path d=" M 22.677 44.853 C 34.907 44.853 44.853 34.907 44.853 22.677 C 44.853 10.447 34.907 0.502 22.677 0.502 C 10.447 0.502 0.502 10.447 0.502 22.677 C 0.502 34.896 10.447 44.853 22.677 44.853 Z  M 22.677 2.181 C 33.975 2.181 43.162 11.368 43.162 22.666 C 43.162 33.963 33.975 43.15 22.677 43.15 C 11.38 43.15 2.192 33.963 2.192 22.666 C 2.192 11.368 11.38 2.181 22.677 2.181 Z  M 15.775 31.818 C 15.915 31.899 16.067 31.946 16.218 31.946 C 16.352 31.943 16.483 31.911 16.603 31.853 L 33.264 23.423 C 33.55 23.279 33.73 22.986 33.73 22.666 C 33.73 22.345 33.55 22.052 33.264 21.908 L 16.603 13.478 C 16.346 13.35 16.032 13.362 15.775 13.513 C 15.525 13.669 15.371 13.941 15.367 14.236 L 15.367 31.107 C 15.367 31.398 15.53 31.666 15.775 31.818 L 15.775 31.818 Z  M 17.058 29.626 L 17.058 15.612 L 22.106 18.165 L 31.002 22.666 L 17.058 29.719 L 17.058 29.626 L 17.058 29.626 Z " fill="rgb(6,186,187)"/></g></svg>