<?xml version="1.0" encoding="UTF-8"?>
<svg enable-background="new 0 0 504.2 504.2" version="1.1" viewBox="0 0 504.2 504.2" xml:space="preserve" xmlns="http://www.w3.org/2000/svg">
<circle cx="343.1" cy="166.8" r="157.5" fill="#4FBF9F"/>
<path d="m343.1 265.3c-54.3 0-98.5-44.2-98.5-98.5s44.2-97.7 97.7-97.7c54.3 0 97.7 44.2 97.7 97.7 0.8 54.3-43.4 98.5-96.9 98.5z" fill="#fff"/>
<path d="m343.1 273c-59 0-106.3-47.3-106.3-106.3 0-58.2 47.3-105.5 105.5-105.5s105.5 47.3 105.5 105.5c0.8 59-46.6 106.3-104.7 106.3zm0-196.2c-50.4 0-90.8 40.3-90.8 90s40.3 90 90 90 90-40.3 90-90-39.6-90-89.2-90z" fill="#193651"/>
<ellipse cx="342.54" cy="166.74" rx="69.801" ry="69.801" fill="#E1E6E9"/>
<g fill="#2EA2DB">
	<path d="m348.5 179.2s3.1-3.1-8.5-6.2c0 0-3.1 0.8-1.6-7.8l-3.1-0.8s-0.8-7-3.9-5.4c0 0-2.3 1.6-3.9-3.1 0 0-7-3.9-10.1 6.2 0 0-10.9 3.9-2.3 15.5l3.9 5.4-3.1 10.1s2.3 1.6 0 5.4c0 0 2.3 4.7-2.3 10.1 0 0 0.8 10.9 8.5 10.1l-1.6-3.1 2.3-3.9-3.1-0.8 3.1-3.9-1.6-2.3s11.6 3.1 14.7-7c0 0-3.9-6.2 4.7-3.1 0 0 3.9 1.6 6.2-7.8 0 0 4.7-2.3 4.7-4.7 0.1-2.1-3-2.9-3-2.9z"/>
	<path d="m412.1 156.7c-1.6 2.3-2.3 6.2-2.3 6.2-4.7 4.7-9.3-6.2-9.3-6.2-4.7 5.4-10.1-3.1-10.1-3.1-14-13.2-21.7 1.6-21.7 1.6-10.9 5.4-6.2 20.2-6.2 20.2 3.1 8.5 13.2 1.6 13.2 1.6 3.1 7.8 7 7 7 7s0 0-1.6 3.1 3.1 9.3 2.3 10.9-10.1 3.9-5.4 11.6c4.7 7.8 0.8 10.9 0.8 10.9s1.6 2.3 3.1 4.7c13.2-8.5 23.3-21.7 27.9-38 3.1-10.3 3.9-20.4 2.3-30.5z"/>
	<path d="m295 139.6l1.6 7.8s8.5 0.8 8.5-3.1 3.9-8.5 11.6-3.9c7.8 4.7 4.7 0 14.7-7 9.3-7 11.6 1.6 15.5-3.1s8.5-14-1.6-10.1-8.5 1.6 1.6-6.2c10.1-7-5.4 0-17.8-3.9-5.4-1.6-6.2-6.2-5.4-10.1-7.8 2.3-14.7 5.4-21.7 10.1-2.3 3.1-4.7 7.8-8.5 14-6.3 10.9 1.5 15.5 1.5 15.5z"/>
</g>
<polygon points="86.3 319.6 11.8 319.6 49.1 391" fill="#FDBF5E"/>
<path d="m49.1 398.7c-3.1 0-5.4-1.6-7-3.9l-37.3-71.3c-1.6-2.3-1.6-5.4 0-7.8 1.6-2.3 3.9-3.9 7-3.9h74.5c2.3 0 5.4 1.6 7 3.9s1.6 5.4 0 7.8l-37.2 71.4c-1.6 2.3-3.9 3.8-7 3.8zm-24.1-71.4l24.8 47.3 24.8-47.3h-49.6z" fill="#193651"/>
<rect x="11.8" y="69.8" width="74.5" height="249.8" fill="#FDBF5E"/>
<path d="m86.3 327.3h-74.5c-4.7 0-7.8-3.1-7.8-7.8v-249.7c0-4.7 3.1-7.8 7.8-7.8h74.5c4.7 0 7.8 3.1 7.8 7.8v249.8c-0.1 3.9-3.2 7.7-7.8 7.7zm-66.7-15.5h59v-234.2h-59v234.2z" fill="#193651"/>
<rect x="35.1" y="93.1" width="27.9" height="203.2" fill="#fff"/>
<g fill="#193651">
	<path d="m344.6 308v-15.5c4.7 0 10.1 0 14.7-0.8l1.6 15.5c-5.4 0.8-10.9 0.8-16.3 0.8z"/>
	<path d="m377.2 304.1l-3.9-14.7c4.7-0.8 9.3-2.3 14-3.9l5.4 14.7c-5.4 1.5-10.8 3.1-15.5 3.9z"/>
	<path d="m407.5 293.2l-7-14c4.7-2.3 8.5-4.7 12.4-7l8.5 13.2c-3.9 2.4-8.5 5.5-13.9 7.8z"/>
	<path d="m435.4 275.4l-10.1-11.7c3.9-3.1 7-6.2 10.9-10.1l11.6 10.9c-4.7 3.1-8.5 7-12.4 10.9z"/>
	<path d="m457.1 251.3l-12.4-9.3c3.1-3.9 5.4-7.8 7.8-12.4l13.2 7.8c-1.6 4.6-4.7 9.3-8.6 13.9z"/>
	<path d="m474.2 222.6l-14-6.2c1.6-4.7 3.9-9.3 4.7-14l14.7 4.7c-1.6 5.4-3.9 10.9-5.4 15.5z"/>
	<path d="m483.5 191.6l-15.5-2.3c0.8-4.7 1.6-9.3 1.6-14.7l15.5 0.8c-0.1 5.3-0.8 10.8-1.6 16.2z"/>
	<path d="m469.5 159.8c0-4.7-0.8-10.1-1.6-14.7l15.5-2.3c0.8 5.4 1.6 10.9 1.6 16.3l-15.5 0.7z"/>
	<path d="m464.9 131.1c-1.6-4.7-3.1-9.3-4.7-14l14-6.2c2.3 4.7 3.9 10.1 5.4 15.5l-14.7 4.7z"/>
	<path d="m453.2 103.9c-2.3-3.9-5.4-8.5-7.8-12.4l12.4-9.3c3.1 4.7 6.2 9.3 9.3 14l-13.9 7.7z"/>
	<path d="M435.4,80.7c-3.1-3.9-7-7-10.9-10.1L434.6,59c3.9,3.9,8.5,7,11.6,10.9L435.4,80.7z"/>
	<path d="M412.9,62c-3.9-2.3-8.5-5.4-12.4-7l7-14c4.7,2.3,9.3,5.4,14,8.5L412.9,62z"/>
	<path d="m387.3 48.9c-4.7-1.6-9.3-3.1-14-3.9l3.1-15.5c5.4 1.6 10.9 3.1 15.5 4.7l-4.6 14.7z"/>
	<path d="m358.6 42.6c-4.7-0.8-9.3-0.8-14-0.8v-15.4c5.4 0 10.9 0 16.3 0.8l-2.3 15.4z"/>
	<rect x="312.8" y="26.4" width="15.5" height="15.5"/>
	<rect x="281.8" y="26.4" width="15.5" height="15.5"/>
	<rect x="250.7" y="26.4" width="15.5" height="15.5"/>
	<rect x="219.7" y="26.4" width="15.5" height="15.5"/>
	<rect x="188.7" y="26.4" width="15.5" height="15.5"/>
	<rect x="157.7" y="26.4" width="15.5" height="15.5"/>
	<rect x="126.6" y="26.4" width="15.5" height="15.5"/>
</g>
<path d="m70.8 7.7h-43.5c-8.5 0-15.5 7-15.5 15.5v46.5h74.5v-46.4c0-8.6-7-15.6-15.5-15.6z" fill="#4FBF9F"/>
<path d="M86.3,77.6H11.8c-4.7,0-7.8-3.1-7.8-7.8V23.3C4.1,10.1,14.1,0,27.3,0h43.4C83.9,0,94,10.1,94,23.3  v46.5C94,74.5,90.9,77.6,86.3,77.6z M19.6,62h59V23.3c0-4.7-3.1-7.8-7.8-7.8H27.3c-4.7,0-7.8,3.1-7.8,7.8V62H19.6z" fill="#193651"/>
<rect x="103.4" y="355.3" width="389.4" height="141.2" fill="#E1E6E9"/>
<g fill="#193651">
	<path d="m492.8 504.2h-389.4c-4.7 0-7.8-3.1-7.8-7.8v-141.1c0-4.7 3.1-7.8 7.8-7.8h389.4c4.7 0 7.8 3.1 7.8 7.8v141.2c-0.1 4.6-3.2 7.7-7.8 7.7zm-381.7-15.5h373.9v-125.7h-373.9v125.7z"/>
	<rect x="129.7" y="383.2" width="20.2" height="19.4"/>
	<rect x="165.4" y="383.2" width="20.2" height="19.4"/>
	<rect x="200.3" y="383.2" width="20.2" height="19.4"/>
	<rect x="235.2" y="383.2" width="20.2" height="19.4"/>
	<rect x="270.1" y="383.2" width="20.2" height="19.4"/>
	<rect x="305.8" y="383.2" width="20.2" height="19.4"/>
	<rect x="340.7" y="383.2" width="20.2" height="19.4"/>
	<rect x="375.6" y="383.2" width="20.2" height="19.4"/>
	<rect x="410.6" y="383.2" width="20.2" height="19.4"/>
	<rect x="446.2" y="383.2" width="20.2" height="19.4"/>
	<rect x="129.7" y="416.6" width="20.2" height="19.4"/>
	<rect x="165.4" y="416.6" width="20.2" height="19.4"/>
	<rect x="200.3" y="416.6" width="20.2" height="19.4"/>
	<rect x="235.2" y="416.6" width="20.2" height="19.4"/>
	<rect x="270.1" y="416.6" width="20.2" height="19.4"/>
	<rect x="305.8" y="416.6" width="20.2" height="19.4"/>
	<rect x="340.7" y="416.6" width="20.2" height="19.4"/>
	<rect x="375.6" y="416.6" width="20.2" height="19.4"/>
	<rect x="410.6" y="416.6" width="20.2" height="19.4"/>
	<rect x="446.2" y="416.6" width="20.2" height="19.4"/>
	<rect x="129.7" y="449.1" width="20.2" height="19.4"/>
	<rect x="165.4" y="449.1" width="20.2" height="19.4"/>
	<rect x="200.3" y="449.1" width="20.2" height="19.4"/>
	<rect x="375.6" y="449.1" width="20.2" height="19.4"/>
	<rect x="410.6" y="449.1" width="20.2" height="19.4"/>
	<rect x="446.2" y="449.1" width="20.2" height="19.4"/>
	<rect x="235.2" y="449.1" width="125.7" height="19.4"/>
</g>
</svg>
