<?xml version="1.0" encoding="UTF-8" standalone="no"?><!-- Generator: Gravit.io --><svg xmlns="http://www.w3.org/2000/svg" xmlns:xlink="http://www.w3.org/1999/xlink" style="isolation:isolate" viewBox="0 0 45.354 45.354" width="45.354pt" height="45.354pt"><g><path d=" M 28.297 29.731 L 14.353 22.666 L 23.248 18.165 L 28.297 29.626 L 28.297 29.731 Z " fill="rgb(255,153,0)"/><path d=" M 22.677 44.853 C 10.447 44.853 0.502 34.907 0.502 22.677 C 0.502 10.447 10.447 0.502 22.677 0.502 C 34.907 0.502 44.853 10.447 44.853 22.677 C 44.853 34.896 34.907 44.853 22.677 44.853 Z  M 22.677 2.181 C 11.38 2.181 2.192 11.368 2.192 22.666 C 2.192 33.963 11.38 43.15 22.677 43.15 C 33.975 43.15 43.162 33.963 43.162 22.666 C 43.162 11.368 33.975 2.181 22.677 2.181 Z  M 29.579 31.818 C 29.439 31.899 29.288 31.946 29.136 31.946 C 29.003 31.943 28.872 31.911 28.752 31.853 L 12.091 23.423 C 11.805 23.279 11.624 22.986 11.624 22.666 C 11.624 22.345 11.805 22.052 12.091 21.908 L 28.752 13.478 C 29.008 13.35 29.323 13.362 29.579 13.513 C 29.829 13.669 29.983 13.941 29.987 14.236 L 29.987 31.107 C 29.987 31.398 29.824 31.666 29.579 31.818 L 29.579 31.818 Z  M 28.297 29.626 L 28.297 15.612 L 23.248 18.165 L 14.353 22.666 L 28.297 29.719 L 28.297 29.626 L 28.297 29.626 Z " fill="rgb(6,186,187)"/></g></svg>