<?xml version="1.0" standalone="no"?><!-- Generator: Gravit.io --><svg xmlns="http://www.w3.org/2000/svg" xmlns:xlink="http://www.w3.org/1999/xlink" style="isolation:isolate" viewBox="0 0 28.346 28.346" width="28.346px" height="28.346px"><path d=" M 15.313 24.32 L 13.018 24.32 C 12.271 24.32 11.659 23.708 11.659 22.961 L 11.659 22.421 C 11.659 22.374 11.636 22.191 11.445 22.12 C 11.421 22.112 11.405 22.104 11.389 22.096 C 11.064 21.985 10.738 21.849 10.436 21.691 C 10.42 21.683 10.397 21.675 10.381 21.667 C 10.325 21.667 10.158 21.754 10.063 21.826 L 9.729 22.159 C 9.197 22.691 8.34 22.691 7.807 22.159 L 6.171 20.531 C 5.639 19.999 5.639 19.141 6.171 18.609 L 6.473 18.307 C 6.703 18.077 6.568 17.767 6.568 17.759 C 6.553 17.727 6.537 17.696 6.529 17.656 C 6.433 17.441 6.338 17.227 6.267 17.013 C 6.259 16.989 6.243 16.973 6.235 16.949 C 6.124 16.679 5.758 16.671 5.742 16.671 L 5.369 16.671 C 4.623 16.671 4.011 16.06 4.011 15.313 L 4.011 13.018 C 4.011 12.271 4.623 11.659 5.369 11.659 L 5.742 11.659 C 5.75 11.659 6.124 11.652 6.235 11.381 C 6.243 11.358 6.251 11.334 6.267 11.318 C 6.346 11.104 6.433 10.889 6.529 10.675 C 6.537 10.643 6.553 10.611 6.568 10.579 C 6.584 10.532 6.696 10.254 6.473 10.031 L 6.171 9.729 C 5.639 9.197 5.639 8.34 6.171 7.807 L 7.8 6.179 C 8.332 5.647 9.189 5.647 9.722 6.179 L 10.055 6.513 C 10.166 6.592 10.333 6.68 10.397 6.664 C 10.405 6.656 10.413 6.656 10.42 6.656 C 10.73 6.505 11.056 6.362 11.389 6.251 C 11.405 6.243 11.429 6.235 11.445 6.227 C 11.636 6.155 11.652 5.965 11.659 5.917 L 11.659 5.385 C 11.659 4.638 12.271 4.027 13.018 4.027 L 15.313 4.027 C 16.06 4.027 16.671 4.638 16.671 5.385 L 16.671 5.925 C 16.671 5.973 16.695 6.155 16.886 6.227 C 16.909 6.235 16.925 6.243 16.941 6.251 C 17.275 6.37 17.592 6.505 17.902 6.656 C 17.918 6.664 17.934 6.672 17.958 6.68 C 18.005 6.68 18.164 6.6 18.283 6.521 L 18.617 6.187 C 19.149 5.655 20.007 5.655 20.539 6.187 L 22.167 7.815 C 22.699 8.348 22.699 9.205 22.167 9.737 L 21.865 10.039 C 21.651 10.262 21.754 10.54 21.778 10.595 C 21.786 10.619 21.802 10.651 21.81 10.675 C 21.913 10.889 22 11.111 22.08 11.326 C 22.088 11.35 22.104 11.366 22.112 11.389 C 22.223 11.659 22.588 11.667 22.604 11.667 L 22.977 11.667 C 23.724 11.667 24.335 12.279 24.335 13.026 L 24.335 15.321 C 24.335 16.067 23.724 16.679 22.977 16.679 L 22.604 16.679 C 22.596 16.679 22.223 16.687 22.112 16.957 C 22.104 16.98 22.094 17.001 22.08 17.021 C 22 17.235 21.913 17.449 21.818 17.664 C 21.81 17.696 21.794 17.727 21.778 17.767 C 21.762 17.815 21.651 18.093 21.873 18.315 L 22.175 18.617 C 22.429 18.871 22.572 19.213 22.572 19.578 C 22.572 19.943 22.429 20.285 22.175 20.539 L 20.547 22.167 C 20.015 22.699 19.157 22.699 18.625 22.167 L 18.291 21.834 C 18.18 21.754 18.013 21.675 17.95 21.683 C 17.942 21.691 17.926 21.691 17.918 21.699 C 17.608 21.849 17.283 21.985 16.957 22.104 C 16.941 22.112 16.917 22.12 16.901 22.127 C 16.695 22.207 16.687 22.429 16.687 22.429 L 16.687 22.969 C 16.671 23.708 16.06 24.32 15.313 24.32 L 15.313 24.32 Z  M 12.025 21.071 C 12.668 21.405 12.843 22.056 12.843 22.413 L 12.843 22.953 C 12.843 23.041 12.922 23.12 13.01 23.12 L 15.305 23.12 C 15.392 23.12 15.472 23.041 15.472 22.953 L 15.472 22.413 C 15.472 22.056 15.647 21.397 16.298 21.063 C 16.338 21.031 16.393 21.008 16.441 20.992 C 16.806 20.873 17.164 20.722 17.497 20.547 C 17.592 20.499 17.696 20.468 17.799 20.483 C 18.418 20.412 18.974 20.857 19.046 20.912 C 19.062 20.928 19.078 20.936 19.086 20.952 L 19.443 21.309 C 19.507 21.373 19.618 21.373 19.681 21.309 L 21.309 19.681 C 21.349 19.642 21.357 19.586 21.357 19.562 C 21.357 19.538 21.349 19.483 21.309 19.443 L 21.008 19.141 C 20.444 18.577 20.468 17.87 20.61 17.426 C 20.618 17.37 20.634 17.314 20.658 17.267 C 20.777 17.013 20.888 16.758 20.976 16.504 C 20.992 16.449 21.023 16.401 21.055 16.353 C 21.421 15.654 22.167 15.464 22.588 15.472 L 22.961 15.472 C 23.049 15.472 23.128 15.392 23.128 15.305 L 23.128 13.01 C 23.128 12.922 23.049 12.843 22.961 12.843 L 22.58 12.843 C 22.167 12.843 21.413 12.652 21.055 11.953 C 21.023 11.914 21 11.858 20.984 11.81 C 20.896 11.549 20.79 11.294 20.666 11.048 C 20.642 10.992 20.626 10.937 20.61 10.881 C 20.475 10.444 20.452 9.737 21.016 9.174 L 21.317 8.872 C 21.381 8.808 21.381 8.697 21.317 8.633 L 19.689 7.005 C 19.626 6.942 19.514 6.942 19.451 7.005 L 19.094 7.363 L 19.054 7.402 C 18.982 7.458 18.426 7.903 17.807 7.831 C 17.704 7.839 17.6 7.815 17.505 7.76 C 17.171 7.585 16.822 7.434 16.449 7.315 C 16.393 7.299 16.345 7.275 16.298 7.244 C 15.654 6.91 15.48 6.259 15.48 5.893 L 15.48 5.353 C 15.48 5.266 15.4 5.186 15.313 5.186 L 13.018 5.186 C 12.93 5.186 12.851 5.266 12.851 5.353 L 12.851 5.893 C 12.851 6.251 12.676 6.91 12.025 7.244 C 11.985 7.275 11.93 7.299 11.882 7.315 C 11.517 7.434 11.159 7.585 10.826 7.76 C 10.73 7.807 10.627 7.831 10.524 7.831 C 9.904 7.895 9.348 7.458 9.277 7.402 C 9.261 7.387 9.245 7.379 9.237 7.363 L 8.88 7.005 C 8.816 6.942 8.705 6.942 8.641 7.005 L 7.013 8.633 C 6.95 8.697 6.95 8.808 7.013 8.872 L 7.315 9.174 C 7.887 9.745 7.855 10.452 7.712 10.889 C 7.704 10.945 7.688 10.992 7.664 11.048 C 7.545 11.296 7.439 11.551 7.347 11.81 C 7.331 11.866 7.299 11.914 7.267 11.961 C 6.902 12.66 6.132 12.843 5.734 12.843 L 5.361 12.843 C 5.274 12.843 5.194 12.922 5.194 13.01 L 5.194 15.305 C 5.194 15.392 5.274 15.472 5.361 15.472 L 5.742 15.472 C 6.155 15.472 6.91 15.662 7.267 16.361 C 7.299 16.401 7.323 16.457 7.339 16.504 C 7.426 16.758 7.529 17.013 7.657 17.267 C 7.68 17.322 7.696 17.378 7.704 17.434 C 7.839 17.87 7.871 18.577 7.299 19.141 L 6.997 19.443 C 6.934 19.507 6.934 19.618 6.997 19.681 L 8.626 21.309 C 8.689 21.373 8.8 21.373 8.864 21.309 L 9.221 20.952 L 9.261 20.912 C 9.332 20.857 9.888 20.412 10.508 20.483 C 10.611 20.475 10.714 20.499 10.81 20.547 C 11.143 20.722 11.501 20.873 11.866 20.992 C 11.937 21.016 11.985 21.039 12.025 21.071 L 12.025 21.071 Z  M 14.161 19.411 C 11.27 19.411 8.911 17.06 8.911 14.161 C 8.911 11.27 11.262 8.911 14.161 8.911 C 17.052 8.911 19.411 11.262 19.411 14.161 C 19.411 17.06 17.06 19.411 14.161 19.411 Z  M 14.161 10.111 C 11.922 10.111 10.103 11.93 10.103 14.169 C 10.103 16.409 11.922 18.228 14.161 18.228 C 16.401 18.228 18.22 16.409 18.22 14.169 C 18.22 11.93 16.401 10.111 14.161 10.111 Z " fill="rgb(147,149,152)"/></svg>