<?xml version="1.0" encoding="utf-8"?>
<!-- Generator: Adobe Illustrator 19.1.0, SVG Export Plug-In . SVG Version: 6.00 Build 0)  -->
<svg version="1.1" id="Layer_1" xmlns="http://www.w3.org/2000/svg" xmlns:xlink="http://www.w3.org/1999/xlink" x="0px" y="0px"
	 viewBox="-289 381 32 32" style="enable-background:new -289 381 32 32;" xml:space="preserve">
<style type="text/css">
	.st0{fill:#4B4B4B;}
</style>
<title>Icones/big/enviar</title>
<desc>Created with Sketch.</desc>
<g id="shape">
</g>
<g>
	<path id="path-1" class="st0" d="M-258.9,383c-0.3-0.2-0.6-0.3-1-0.2l-26.9,11.2c-0.3,0.1-0.5,0.5-0.5,0.8c0,0.4,0.2,0.7,0.5,0.8
		l10.8,4.4l4.4,10.8c0.1,0.3,0.4,0.5,0.8,0.5s0.7-0.2,0.8-0.5l11.2-26.9C-258.6,383.7-258.7,383.3-258.9,383L-258.9,383z
		 M-268.6,393.9c0.2-0.2,0.3-0.4,0.3-0.6s-0.1-0.5-0.3-0.6c-0.3-0.3-0.9-0.3-1.2,0l-5.7,5.7l-8.7-3.5l23-9.6l-9.6,23l-3.5-8.7
		L-268.6,393.9z"/>
</g>
</svg>
