<?xml version="1.0" standalone="no"?><!-- Generator: Gravit.io --><svg xmlns="http://www.w3.org/2000/svg" xmlns:xlink="http://www.w3.org/1999/xlink" style="isolation:isolate" viewBox="0 0 85 65" width="85" height="65"><g><path d=" M 3.461 53.101 L 77.534 3.269 C 79.151 2.162 81.362 2.579 82.466 4.196 L 82.466 4.196 C 83.573 5.814 83.156 8.022 81.539 9.129 L 7.466 58.961 C 5.849 60.068 3.638 59.651 2.534 58.034 L 2.534 58.034 C 1.427 56.417 1.844 54.206 3.461 53.101 Z " fill="rgb(215,237,244)"/><path d=" M 23.056 51.404 L 59.806 51.404 L 70.732 62.35 L 73.72 60.93 L 73.72 42.12 L 73.72 42.12 L 73.72 40.734 L 73.72 18.227 C 73.72 17.79 73.688 17.356 73.628 16.928 L 69.765 19.561 L 69.765 40.734 L 69.765 42.12 L 69.765 55.771 L 69.765 55.771 L 61.448 47.455 L 28.85 47.455 L 23.056 51.404 Z  M 11.488 45.501 C 11.066 44.431 10.841 43.284 10.841 42.12 L 10.841 18.227 C 10.841 15.759 11.834 13.386 13.572 11.648 C 15.31 9.91 17.682 8.923 20.151 8.923 L 64.41 8.923 C 64.643 8.923 64.874 8.931 65.105 8.949 L 59.35 12.872 L 20.151 12.872 C 18.725 12.872 17.365 13.446 16.378 14.434 C 15.37 15.441 14.796 16.806 14.796 18.227 L 14.796 42.12 C 14.796 42.474 14.833 42.827 14.904 43.172 L 11.488 45.501 Z " fill-rule="evenodd" fill="rgb(215,237,244)"/></g></svg>