<?xml version="1.0" standalone="no"?><!-- Generator: Gravit.io --><svg xmlns="http://www.w3.org/2000/svg" xmlns:xlink="http://www.w3.org/1999/xlink" style="isolation:isolate"  height="48.189px"><g><text transform="matrix(1,0,0,1,7.78,33.154)" style=";font-weight:400;font-size:20px;font-style:normal;fill:#ffffff;stroke:none;">EAD - Plataforma</text><linearGradient id="_lgradient_11" x1="1.3068883415151942" y1="-0.2719564106272756" x2="-1.0920091263334508" y2="1.503439072185819" gradientTransform="matrix(30,0,0,25.455,1.78,0.294)" gradientUnits="userSpaceOnUse"><stop offset="2.1739130434782608%" stop-opacity="1" style="stop-color:rgb(0,255,221)"/><stop offset="99.1304347826087%" stop-opacity="1" style="stop-color:rgb(18,57,123)"/></linearGradient><path d=" M 16.78 0.294 C 16.443 0.297 16.113 0.387 15.822 0.554 C 1.803 9.081 1.806 9.399 1.78 9.838 C 1.769 10.02 2.119 10.403 3.074 11.269 C 3.066 11.313 3.063 11.357 3.065 11.402 C 3.065 13.399 3.07 18.328 3.072 19.411 C 2.676 19.646 2.432 20.072 2.432 20.532 C 2.432 20.682 2.46 20.832 2.511 20.976 C 2.07 21.332 1.78 21.864 1.78 22.468 C 1.78 23.238 2.18 23.892 2.526 24.468 C 2.739 24.822 2.97 25.165 3.219 25.494 C 3.342 25.655 3.532 25.749 3.734 25.749 C 3.935 25.749 4.126 25.658 4.251 25.5 C 4.251 25.5 4.597 25.056 4.946 24.484 C 5.296 23.908 5.693 23.245 5.693 22.468 C 5.693 21.864 5.403 21.332 4.962 20.975 C 5.013 20.833 5.04 20.683 5.041 20.532 C 5.041 20.079 4.804 19.658 4.419 19.421 C 4.416 18.494 4.414 14.894 4.411 12.451 C 5.285 13.226 5.968 13.834 7.649 15.315 L 7.649 10.749 C 11.44 8.049 21.997 8.09 25.91 10.749 L 25.91 15.315 C 30.394 11.348 31.8 10.187 31.78 9.835 C 31.754 9.397 31.757 9.081 17.725 0.549 C 17.438 0.382 17.112 0.294 16.78 0.295 L 16.78 0.294 Z  M 8.954 15.101 C 10.46 14.719 13.201 14.01 16.78 14.01 C 20.361 14.01 23.1 14.716 24.606 15.101 L 24.606 11.575 C 23.406 11.062 20.634 10.097 16.78 10.097 C 12.895 10.097 10.146 11.058 8.954 11.57 L 8.954 15.101 Z  M 3.736 21.836 C 4.111 21.836 4.388 22.119 4.388 22.468 C 4.388 22.654 4.134 23.304 3.831 23.803 C 3.785 23.88 3.785 23.869 3.739 23.938 C 3.693 23.864 3.691 23.874 3.642 23.795 C 3.336 23.291 3.084 22.629 3.084 22.469 C 3.084 22.12 3.362 21.837 3.736 21.837 L 3.736 21.836 Z " fill="url(#_lgradient_11)"/><text transform="matrix(1,0,0,1,33.78,46.19)" style="font-family:'Lato';font-weight:400;font-size:8px;font-style:normal;font-variant-ligatures:none;letter-spacing:9;fill:#ffffff;stroke:none;">ADMIN</text></g></svg>