<?xml version="1.0" standalone="no"?><!-- Generator: Gravit.io --><svg xmlns="http://www.w3.org/2000/svg" xmlns:xlink="http://www.w3.org/1999/xlink" style="isolation:isolate" viewBox="0 0 297.638 80.079" width="297.638px" height="80.079px"><g><g><g><path d=" M 121.254 73.926 L 121.254 40.35 L 129.585 40.35 L 129.585 40.35 Q 133.938 40.35 135.907 42.713 L 135.907 42.713 L 135.907 42.713 Q 137.876 45.076 137.876 49.635 L 137.876 49.635 L 137.876 49.635 Q 137.876 53.739 135.762 56.019 L 135.762 56.019 L 135.762 56.019 Q 133.648 58.299 129.627 58.299 L 129.627 58.299 L 125.938 58.299 L 125.938 73.926 L 121.254 73.926 Z  M 125.938 54.941 L 128.093 54.941 L 128.093 54.941 Q 130.166 54.941 131.306 54.485 L 131.306 54.485 L 131.306 54.485 Q 132.446 54.029 132.943 52.91 L 132.943 52.91 L 132.943 52.91 Q 133.44 51.791 133.44 49.677 L 133.44 49.677 L 133.44 49.677 Q 133.44 47.107 133.067 45.905 L 133.067 45.905 L 133.067 45.905 Q 132.694 44.703 131.596 44.205 L 131.596 44.205 L 131.596 44.205 Q 130.497 43.708 128.135 43.708 L 128.135 43.708 L 125.938 43.708 L 125.938 54.941 Z  M 141.192 73.926 L 141.192 40.35 L 145.627 40.35 L 145.627 73.926 L 141.192 73.926 Z  M 154.581 74.258 L 154.581 74.258 Q 153.213 74.258 152.114 73.47 L 152.114 73.47 L 152.114 73.47 Q 151.016 72.683 150.394 71.398 L 150.394 71.398 L 150.394 71.398 Q 149.772 70.113 149.772 68.703 L 149.772 68.703 L 149.772 68.703 Q 149.772 65.884 150.974 64.123 L 150.974 64.123 L 150.974 64.123 Q 152.176 62.361 154.042 61.325 L 154.042 61.325 L 154.042 61.325 Q 155.907 60.288 159.223 58.962 L 159.223 58.962 L 159.223 57.263 L 159.223 57.263 Q 159.223 54.9 158.747 53.926 L 158.747 53.926 L 158.747 53.926 Q 158.27 52.952 156.819 52.952 L 156.819 52.952 L 156.819 52.952 Q 154.291 52.952 154.291 56.351 L 154.291 56.351 L 154.291 57.553 L 149.897 57.387 L 149.897 57.387 Q 149.98 53.408 151.721 51.521 L 151.721 51.521 L 151.721 51.521 Q 153.461 49.635 157.109 49.635 L 157.109 49.635 L 157.109 49.635 Q 160.55 49.635 162.104 51.521 L 162.104 51.521 L 162.104 51.521 Q 163.659 53.408 163.659 57.221 L 163.659 57.221 L 163.659 68.164 L 163.659 68.164 Q 163.659 70.859 164.073 73.926 L 164.073 73.926 L 160.011 73.926 L 160.011 73.926 Q 159.555 71.563 159.431 70.403 L 159.431 70.403 L 159.431 70.403 Q 158.933 72.019 157.71 73.138 L 157.71 73.138 L 157.71 73.138 Q 156.487 74.258 154.581 74.258 L 154.581 74.258 Z  M 156.322 70.444 L 156.322 70.444 Q 157.192 70.444 158.021 69.76 L 158.021 69.76 L 158.021 69.76 Q 158.85 69.076 159.223 68.454 L 159.223 68.454 L 159.223 61.656 L 159.223 61.656 Q 157.441 62.651 156.467 63.377 L 156.467 63.377 L 156.467 63.377 Q 155.493 64.102 154.85 65.055 L 154.85 65.055 L 154.85 65.055 Q 154.208 66.009 154.208 67.335 L 154.208 67.335 L 154.208 67.335 Q 154.208 68.828 154.746 69.636 L 154.746 69.636 L 154.746 69.636 Q 155.285 70.444 156.322 70.444 L 156.322 70.444 Z  M 173.98 74.258 L 173.98 74.258 Q 168.799 74.258 168.799 68.537 L 168.799 68.537 L 168.799 52.91 L 166.27 52.91 L 166.27 49.967 L 168.799 49.967 L 168.799 42.962 L 173.234 42.962 L 173.234 49.967 L 177.089 49.967 L 177.089 52.91 L 173.234 52.91 L 173.234 68.247 L 173.234 68.247 Q 173.234 69.698 173.69 70.278 L 173.69 70.278 L 173.69 70.278 Q 174.146 70.859 175.431 70.859 L 175.431 70.859 L 175.431 70.859 Q 176.26 70.859 177.047 70.734 L 177.047 70.734 L 177.047 74.009 L 177.047 74.009 Q 175.389 74.258 173.98 74.258 L 173.98 74.258 Z  M 184.675 74.258 L 184.675 74.258 Q 183.307 74.258 182.208 73.47 L 182.208 73.47 L 182.208 73.47 Q 181.11 72.683 180.488 71.398 L 180.488 71.398 L 180.488 71.398 Q 179.866 70.113 179.866 68.703 L 179.866 68.703 L 179.866 68.703 Q 179.866 65.884 181.068 64.123 L 181.068 64.123 L 181.068 64.123 Q 182.27 62.361 184.136 61.325 L 184.136 61.325 L 184.136 61.325 Q 186.001 60.288 189.317 58.962 L 189.317 58.962 L 189.317 57.263 L 189.317 57.263 Q 189.317 54.9 188.84 53.926 L 188.84 53.926 L 188.84 53.926 Q 188.364 52.952 186.913 52.952 L 186.913 52.952 L 186.913 52.952 Q 184.384 52.952 184.384 56.351 L 184.384 56.351 L 184.384 57.553 L 179.991 57.387 L 179.991 57.387 Q 180.073 53.408 181.814 51.521 L 181.814 51.521 L 181.814 51.521 Q 183.555 49.635 187.203 49.635 L 187.203 49.635 L 187.203 49.635 Q 190.644 49.635 192.198 51.521 L 192.198 51.521 L 192.198 51.521 Q 193.752 53.408 193.752 57.221 L 193.752 57.221 L 193.752 68.164 L 193.752 68.164 Q 193.752 70.859 194.167 73.926 L 194.167 73.926 L 190.105 73.926 L 190.105 73.926 Q 189.649 71.563 189.524 70.403 L 189.524 70.403 L 189.524 70.403 Q 189.027 72.019 187.804 73.138 L 187.804 73.138 L 187.804 73.138 Q 186.581 74.258 184.675 74.258 L 184.675 74.258 Z  M 186.416 70.444 L 186.416 70.444 Q 187.286 70.444 188.115 69.76 L 188.115 69.76 L 188.115 69.76 Q 188.944 69.076 189.317 68.454 L 189.317 68.454 L 189.317 61.656 L 189.317 61.656 Q 187.535 62.651 186.561 63.377 L 186.561 63.377 L 186.561 63.377 Q 185.586 64.102 184.944 65.055 L 184.944 65.055 L 184.944 65.055 Q 184.301 66.009 184.301 67.335 L 184.301 67.335 L 184.301 67.335 Q 184.301 68.828 184.84 69.636 L 184.84 69.636 L 184.84 69.636 Q 185.379 70.444 186.416 70.444 L 186.416 70.444 Z  M 199.431 73.926 L 199.431 53.242 L 196.571 53.242 L 196.571 49.967 L 199.431 49.967 L 199.431 48.723 L 199.431 48.723 Q 199.431 46.236 199.804 44.723 L 199.804 44.723 L 199.804 44.723 Q 200.177 43.21 201.317 42.381 L 201.317 42.381 L 201.317 42.381 Q 202.457 41.552 204.613 41.552 L 204.613 41.552 L 204.613 41.552 Q 206.064 41.552 207.514 41.843 L 207.514 41.843 L 207.514 45.076 L 207.514 45.076 Q 206.685 44.868 205.856 44.868 L 205.856 44.868 L 205.856 44.868 Q 204.654 44.868 204.26 45.635 L 204.26 45.635 L 204.26 45.635 Q 203.867 46.402 203.867 47.977 L 203.867 47.977 L 203.867 49.967 L 207.514 49.967 L 207.514 53.242 L 203.867 53.242 L 203.867 73.926 L 199.431 73.926 Z  M 216.509 74.258 L 216.509 74.258 Q 212.696 74.258 211.1 71.999 L 211.1 71.999 L 211.1 71.999 Q 209.504 69.739 209.504 65.428 L 209.504 65.428 L 209.504 58.465 L 209.504 58.465 Q 209.504 54.154 211.1 51.895 L 211.1 51.895 L 211.1 51.895 Q 212.696 49.635 216.509 49.635 L 216.509 49.635 L 216.509 49.635 Q 220.281 49.635 221.877 51.895 L 221.877 51.895 L 221.877 51.895 Q 223.473 54.154 223.473 58.465 L 223.473 58.465 L 223.473 65.428 L 223.473 65.428 Q 223.473 69.739 221.877 71.999 L 221.877 71.999 L 221.877 71.999 Q 220.281 74.258 216.509 74.258 L 216.509 74.258 Z  M 216.509 70.983 L 216.509 70.983 Q 217.711 70.983 218.25 70.278 L 218.25 70.278 L 218.25 70.278 Q 218.789 69.574 218.914 68.537 L 218.914 68.537 L 218.914 68.537 Q 219.038 67.501 219.038 65.719 L 219.038 65.719 L 219.038 58.216 L 219.038 58.216 Q 219.038 56.433 218.914 55.376 L 218.914 55.376 L 218.914 55.376 Q 218.789 54.319 218.25 53.615 L 218.25 53.615 L 218.25 53.615 Q 217.711 52.91 216.509 52.91 L 216.509 52.91 L 216.509 52.91 Q 215.307 52.91 214.748 53.615 L 214.748 53.615 L 214.748 53.615 Q 214.188 54.319 214.064 55.376 L 214.064 55.376 L 214.064 55.376 Q 213.939 56.433 213.939 58.216 L 213.939 58.216 L 213.939 65.719 L 213.939 65.719 Q 213.939 67.501 214.064 68.537 L 214.064 68.537 L 214.064 68.537 Q 214.188 69.574 214.748 70.278 L 214.748 70.278 L 214.748 70.278 Q 215.307 70.983 216.509 70.983 L 216.509 70.983 Z  M 227.66 73.926 L 227.66 49.967 L 232.095 49.967 L 232.095 53.366 L 232.095 53.366 Q 233.339 51.335 234.644 50.506 L 234.644 50.506 L 234.644 50.506 Q 235.95 49.677 237.401 49.677 L 237.401 49.677 L 237.401 49.677 Q 237.774 49.677 238.106 49.718 L 238.106 49.718 L 238.106 54.61 L 238.106 54.61 Q 236.779 54.112 235.66 54.112 L 235.66 54.112 L 235.66 54.112 Q 234.582 54.112 233.733 54.63 L 233.733 54.63 L 233.733 54.63 Q 232.883 55.148 232.095 56.433 L 232.095 56.433 L 232.095 73.926 L 227.66 73.926 Z  M 240.841 73.926 L 240.841 49.967 L 244.945 49.967 L 244.945 52.247 L 244.945 52.247 Q 246.147 50.92 247.577 50.236 L 247.577 50.236 L 247.577 50.236 Q 249.007 49.553 250.583 49.553 L 250.583 49.553 L 250.583 49.553 Q 253.65 49.553 254.479 52.578 L 254.479 52.578 L 254.479 52.578 Q 256.966 49.553 260.448 49.553 L 260.448 49.553 L 260.448 49.553 Q 262.313 49.553 263.495 50.92 L 263.495 50.92 L 263.495 50.92 Q 264.676 52.288 264.676 55.107 L 264.676 55.107 L 264.676 73.926 L 260.614 73.926 L 260.614 55.397 L 260.614 55.397 Q 260.614 53.739 260.075 53.097 L 260.075 53.097 L 260.075 53.097 Q 259.536 52.454 258.541 52.454 L 258.541 52.454 L 258.541 52.454 Q 257.629 52.454 256.635 52.972 L 256.635 52.972 L 256.635 52.972 Q 255.64 53.49 254.811 54.402 L 254.811 54.402 L 254.811 55.107 L 254.811 73.926 L 250.748 73.926 L 250.748 55.397 L 250.748 55.397 Q 250.748 53.739 250.21 53.097 L 250.21 53.097 L 250.21 53.097 Q 249.671 52.454 248.676 52.454 L 248.676 52.454 L 248.676 52.454 Q 247.805 52.454 246.811 52.972 L 246.811 52.972 L 246.811 52.972 Q 245.816 53.49 244.945 54.402 L 244.945 54.402 L 244.945 73.926 L 240.841 73.926 Z  M 273.34 74.258 L 273.34 74.258 Q 271.972 74.258 270.873 73.47 L 270.873 73.47 L 270.873 73.47 Q 269.775 72.683 269.153 71.398 L 269.153 71.398 L 269.153 71.398 Q 268.531 70.113 268.531 68.703 L 268.531 68.703 L 268.531 68.703 Q 268.531 65.884 269.733 64.123 L 269.733 64.123 L 269.733 64.123 Q 270.935 62.361 272.801 61.325 L 272.801 61.325 L 272.801 61.325 Q 274.666 60.288 277.982 58.962 L 277.982 58.962 L 277.982 57.263 L 277.982 57.263 Q 277.982 54.9 277.505 53.926 L 277.505 53.926 L 277.505 53.926 Q 277.029 52.952 275.578 52.952 L 275.578 52.952 L 275.578 52.952 Q 273.049 52.952 273.049 56.351 L 273.049 56.351 L 273.049 57.553 L 268.656 57.387 L 268.656 57.387 Q 268.738 53.408 270.479 51.521 L 270.479 51.521 L 270.479 51.521 Q 272.22 49.635 275.868 49.635 L 275.868 49.635 L 275.868 49.635 Q 279.309 49.635 280.863 51.521 L 280.863 51.521 L 280.863 51.521 Q 282.417 53.408 282.417 57.221 L 282.417 57.221 L 282.417 68.164 L 282.417 68.164 Q 282.417 70.859 282.832 73.926 L 282.832 73.926 L 278.77 73.926 L 278.77 73.926 Q 278.314 71.563 278.189 70.403 L 278.189 70.403 L 278.189 70.403 Q 277.692 72.019 276.469 73.138 L 276.469 73.138 L 276.469 73.138 Q 275.246 74.258 273.34 74.258 L 273.34 74.258 Z  M 275.081 70.444 L 275.081 70.444 Q 275.951 70.444 276.78 69.76 L 276.78 69.76 L 276.78 69.76 Q 277.609 69.076 277.982 68.454 L 277.982 68.454 L 277.982 61.656 L 277.982 61.656 Q 276.2 62.651 275.226 63.377 L 275.226 63.377 L 275.226 63.377 Q 274.251 64.102 273.609 65.055 L 273.609 65.055 L 273.609 65.055 Q 272.966 66.009 272.966 67.335 L 272.966 67.335 L 272.966 67.335 Q 272.966 68.828 273.505 69.636 L 273.505 69.636 L 273.505 69.636 Q 274.044 70.444 275.081 70.444 L 275.081 70.444 Z  M 97.875 63.107 L 97.875 59.75 L 107.119 59.75 L 107.119 63.107 L 97.875 63.107 Z  M 29.853 73.926 L 29.853 40.35 L 42.869 40.35 L 42.869 43.832 L 34.537 43.832 L 34.537 54.941 L 41.293 54.941 L 41.293 58.257 L 34.537 58.257 L 34.537 70.568 L 42.951 70.568 L 42.951 73.926 L 29.853 73.926 Z  M 44.9 73.926 L 52.029 40.35 L 56.548 40.35 L 63.719 73.926 L 59.283 73.926 L 57.75 65.47 L 50.91 65.47 L 49.294 73.926 L 44.9 73.926 Z  M 51.532 62.112 L 57.128 62.112 L 54.309 46.983 L 51.532 62.112 Z  M 67.118 73.926 L 67.118 40.35 L 74.413 40.35 L 74.413 40.35 Q 79.843 40.35 82.103 42.837 L 82.103 42.837 L 82.103 42.837 Q 84.362 45.324 84.362 50.589 L 84.362 50.589 L 84.362 62.941 L 84.362 62.941 Q 84.362 68.496 82.144 71.211 L 82.144 71.211 L 82.144 71.211 Q 79.926 73.926 74.786 73.926 L 74.786 73.926 L 67.118 73.926 Z  M 71.802 70.568 L 74.455 70.568 L 74.455 70.568 Q 76.9 70.568 77.999 69.615 L 77.999 69.615 L 77.999 69.615 Q 79.097 68.662 79.367 67.024 L 79.367 67.024 L 79.367 67.024 Q 79.636 65.387 79.636 62.071 L 79.636 62.071 L 79.636 51.169 L 79.636 51.169 Q 79.636 48.309 79.284 46.796 L 79.284 46.796 L 79.284 46.796 Q 78.931 45.283 77.812 44.558 L 77.812 44.558 L 77.812 44.558 Q 76.693 43.832 74.33 43.832 L 74.33 43.832 L 71.802 43.832 L 71.802 70.568 Z " fill="rgb(132,132,132)"/><linearGradient id="_lgradient_0" x1="1.3068883415151942" y1="-0.2719564106272756" x2="-1.0920091263334508" y2="1.503439072185819" gradientTransform="matrix(62.178,0,0,52.757,14.806,5.821)" gradientUnits="userSpaceOnUse"><stop offset="2.1739130434782608%" stop-opacity="1" style="stop-color:rgb(0,255,221)"/><stop offset="99.1304347826087%" stop-opacity="1" style="stop-color:rgb(18,57,123)"/></linearGradient><path d=" M 45.895 5.821 C 45.198 5.827 44.514 6.012 43.909 6.359 C 14.854 24.031 14.86 24.692 14.806 25.6 C 14.785 25.979 15.509 26.772 17.488 28.567 C 17.471 28.658 17.465 28.75 17.469 28.841 C 17.469 32.982 17.48 43.198 17.484 45.441 C 16.663 45.928 16.159 46.811 16.158 47.765 C 16.158 48.076 16.216 48.387 16.322 48.684 C 15.408 49.424 14.806 50.526 14.806 51.778 C 14.806 53.373 15.635 54.729 16.354 55.922 C 16.795 56.656 17.274 57.366 17.789 58.05 C 18.044 58.382 18.438 58.578 18.857 58.578 C 19.274 58.578 19.668 58.389 19.928 58.061 C 19.928 58.061 20.646 57.142 21.369 55.955 C 22.093 54.761 22.916 53.388 22.916 51.778 C 22.916 50.526 22.315 49.424 21.401 48.683 C 21.508 48.388 21.563 48.078 21.565 47.765 C 21.565 46.826 21.074 45.954 20.277 45.463 C 20.271 43.541 20.266 36.08 20.26 31.016 C 22.072 32.622 23.487 33.883 26.971 36.952 L 26.971 27.49 C 34.828 21.893 56.708 21.978 64.818 27.49 L 64.818 36.952 C 74.111 28.731 77.025 26.323 76.984 25.595 C 76.929 24.686 76.936 24.031 47.855 6.348 C 47.26 6.002 46.583 5.82 45.895 5.822 L 45.895 5.821 Z  M 29.675 36.508 C 32.796 35.716 38.477 34.248 45.895 34.248 C 53.318 34.248 58.994 35.711 62.115 36.508 L 62.115 29.201 C 59.628 28.139 53.883 26.138 45.895 26.138 C 37.843 26.138 32.146 28.129 29.675 29.19 L 29.675 36.508 Z  M 18.861 50.468 C 19.637 50.468 20.213 51.055 20.213 51.778 C 20.213 52.163 19.686 53.51 19.057 54.545 C 18.963 54.703 18.963 54.682 18.867 54.825 C 18.772 54.671 18.767 54.692 18.665 54.527 C 18.033 53.483 17.51 52.112 17.51 51.779 C 17.51 51.056 18.085 50.47 18.861 50.47 L 18.861 50.468 Z " fill="url(#_lgradient_0)"/></g></g></g></svg>