<?xml version="1.0" standalone="no"?><!-- Generator: Gravit.io --><svg xmlns="http://www.w3.org/2000/svg" xmlns:xlink="http://www.w3.org/1999/xlink" style="isolation:isolate" viewBox="0 0 16 16" width="16px" height="16px"><path d=" M 34.188 -45.06 C 32.865 -45.06 31.708 -43.903 31.708 -42.58 L 31.708 -41.443 C 26.491 -40.316 22.617 -35.77 22.617 -30.183 L 22.617 -22.744 L 19.311 -18.921 L 19.311 -16.959 L 49.065 -16.959 L 49.065 -18.923 L 45.759 -22.744 L 45.759 -30.183 C 45.759 -35.768 41.884 -40.314 36.667 -41.445 L 36.667 -42.58 C 36.667 -43.903 35.51 -45.06 34.188 -45.06 Z  M 30.882 -15.306 C 30.882 -13.484 32.366 -12 34.188 -12 C 36.009 -12 37.494 -13.484 37.494 -15.306 L 30.882 -15.306 Z " fill="rgb(100,100,100)"/><path d=" M 1.862 0.746 C 0.942 0.746 0.188 1.5 0.188 2.42 L 0.188 8 C 0.188 8.92 0.942 9.674 1.862 9.674 L 3.527 9.674 L 3.527 11.906 L 6.509 9.674 L 9.674 9.674 C 10.594 9.674 11.348 8.92 11.348 8 L 11.348 2.42 C 11.348 1.5 10.594 0.746 9.674 0.746 L 1.862 0.746 Z  M 1.862 1.862 L 9.674 1.862 C 9.988 1.862 10.232 2.106 10.232 2.42 L 10.232 8 C 10.232 8.314 9.988 8.558 9.674 8.558 L 6.134 8.558 L 4.643 9.674 L 4.643 8.558 L 1.862 8.558 C 1.713 8.56 1.57 8.502 1.465 8.397 C 1.36 8.292 1.302 8.149 1.304 8 L 1.304 2.42 C 1.304 2.106 1.548 1.862 1.862 1.862 Z  M 12.464 4.094 L 12.464 5.21 L 14.138 5.21 C 14.452 5.21 14.696 5.454 14.696 5.768 L 14.696 11.348 C 14.696 11.662 14.452 11.906 14.138 11.906 L 11.353 11.906 L 11.353 13.022 L 9.866 11.906 L 6.326 11.906 C 6.109 11.904 5.912 11.776 5.82 11.579 L 4.922 12.254 C 5.223 12.718 5.737 13.022 6.326 13.022 L 9.491 13.022 L 12.469 15.254 L 12.469 13.022 L 14.138 13.022 C 15.058 13.022 15.812 12.268 15.812 11.348 L 15.812 5.768 C 15.812 4.848 15.058 4.094 14.138 4.094 L 12.464 4.094 Z " fill="rgb(3,219,203)"/><path d=" M 69.096 3.055 C 68.1 3.055 67.282 3.873 67.282 4.869 L 67.282 15.75 C 67.282 16.747 68.1 17.564 69.096 17.564 L 81.186 17.564 C 82.183 17.564 83 16.747 83 15.75 L 83 4.869 C 83 3.873 82.183 3.055 81.186 3.055 L 69.096 3.055 Z  M 69.096 4.264 L 81.186 4.264 C 81.526 4.264 81.791 4.529 81.791 4.869 L 81.791 5.474 L 68.491 5.474 L 68.491 4.869 C 68.491 4.529 68.756 4.264 69.096 4.264 Z  M 68.491 6.683 L 81.791 6.683 L 81.791 13.937 L 68.491 13.937 L 68.491 6.683 Z  M 68.491 15.146 L 81.791 15.146 L 81.791 15.75 C 81.791 16.09 81.526 16.355 81.186 16.355 L 69.096 16.355 C 68.935 16.357 68.78 16.294 68.666 16.18 C 68.553 16.066 68.489 15.911 68.491 15.75 L 68.491 15.146 Z " fill="rgb(3,219,203)"/></svg>