<?xml version="1.0" encoding="UTF-8" standalone="no"?><!-- Generator: Gravit.io --><svg xmlns="http://www.w3.org/2000/svg" xmlns:xlink="http://www.w3.org/1999/xlink" style="isolation:isolate" viewBox="0 0 22 22" width="22pt" height="22pt"><path d=" M 11 1.644 C 11.859 1.644 12.687 1.755 13.485 1.977 C 14.284 2.201 15.029 2.513 15.724 2.919 C 16.416 3.322 17.053 3.814 17.62 4.38 C 18.189 4.95 18.677 5.582 19.081 6.276 C 19.49 6.979 19.806 7.731 20.023 8.515 C 20.245 9.313 20.356 10.141 20.356 11 C 20.356 11.859 20.245 12.687 20.023 13.485 C 19.806 14.269 19.49 15.021 19.081 15.724 C 18.678 16.416 18.186 17.053 17.62 17.62 C 17.05 18.189 16.418 18.677 15.724 19.081 C 15.021 19.49 14.269 19.806 13.485 20.023 C 12.676 20.247 11.84 20.359 11 20.356 C 10.142 20.356 9.313 20.245 8.515 20.023 C 7.731 19.806 6.979 19.49 6.276 19.081 C 5.584 18.678 4.947 18.186 4.38 17.62 C 3.814 17.053 3.322 16.416 2.919 15.724 C 2.511 15.023 2.195 14.272 1.978 13.49 C 1.753 12.679 1.641 11.841 1.644 11 C 1.644 10.141 1.755 9.313 1.978 8.515 C 2.194 7.731 2.51 6.979 2.919 6.276 C 3.322 5.584 3.814 4.947 4.38 4.38 C 4.947 3.813 5.584 3.322 6.277 2.919 C 6.978 2.511 7.729 2.194 8.51 1.977 C 9.321 1.753 10.159 1.641 11 1.644 Z  M 2.814 11 C 2.814 11.81 2.926 12.59 3.151 13.339 L 6.468 13.339 C 6.371 12.563 6.323 11.782 6.322 11 C 6.322 10.218 6.371 9.437 6.468 8.661 L 3.151 8.661 C 2.925 9.42 2.811 10.208 2.814 11 Z  M 8.323 3.261 C 7.812 3.438 7.321 3.666 6.852 3.946 C 6.384 4.226 5.948 4.546 5.546 4.906 C 5.142 5.266 4.775 5.666 4.449 6.098 C 4.122 6.532 3.84 6.999 3.609 7.491 L 6.652 7.491 C 6.726 7.12 6.812 6.752 6.908 6.386 C 7.005 6.013 7.123 5.645 7.26 5.285 C 7.397 4.923 7.553 4.571 7.73 4.23 C 7.907 3.889 8.104 3.566 8.323 3.261 L 8.323 3.261 Z  M 3.608 14.508 C 3.839 15.002 4.12 15.467 4.449 15.902 C 5.102 16.769 5.918 17.5 6.852 18.054 C 7.321 18.334 7.811 18.563 8.323 18.739 C 8.101 18.431 7.903 18.107 7.729 17.771 C 7.551 17.429 7.394 17.076 7.258 16.715 C 7.122 16.355 7.004 15.987 6.906 15.614 C 6.81 15.249 6.724 14.88 6.65 14.509 L 3.608 14.509 L 3.608 14.509 L 3.608 14.508 Z  M 14.353 13.339 C 14.402 12.949 14.44 12.561 14.468 12.174 C 14.524 11.392 14.524 10.608 14.468 9.826 C 14.44 9.439 14.402 9.051 14.353 8.661 L 7.647 8.661 C 7.598 9.048 7.56 9.437 7.533 9.826 C 7.477 10.608 7.477 11.392 7.533 12.174 C 7.56 12.561 7.598 12.949 7.647 13.339 L 14.353 13.339 Z  M 11 2.813 C 10.703 2.813 10.413 2.898 10.164 3.06 C 9.906 3.225 9.667 3.441 9.447 3.709 C 9.228 3.977 9.032 4.28 8.858 4.618 C 8.526 5.268 8.258 5.949 8.058 6.652 C 7.978 6.929 7.908 7.209 7.848 7.492 L 14.153 7.492 C 14.019 6.863 13.835 6.246 13.605 5.646 C 13.469 5.296 13.315 4.952 13.143 4.618 C 12.979 4.295 12.782 3.99 12.554 3.709 C 12.351 3.455 12.109 3.236 11.837 3.06 C 11.587 2.899 11.297 2.813 11 2.813 L 11 2.813 Z  M 11 19.187 C 11.299 19.187 11.578 19.105 11.836 18.94 C 12.095 18.775 12.334 18.559 12.553 18.291 C 12.773 18.023 12.969 17.72 13.143 17.382 C 13.475 16.732 13.743 16.051 13.943 15.348 C 14.022 15.071 14.092 14.791 14.152 14.508 L 7.848 14.508 C 7.983 15.137 8.166 15.754 8.396 16.354 C 8.53 16.701 8.684 17.043 8.858 17.382 C 9.032 17.72 9.228 18.023 9.447 18.291 C 9.667 18.559 9.906 18.776 10.164 18.94 C 10.424 19.104 10.702 19.187 11 19.187 L 11 19.187 Z  M 18.392 7.491 C 18.162 6.999 17.88 6.532 17.552 6.098 C 16.899 5.231 16.083 4.5 15.149 3.946 C 14.684 3.667 14.191 3.438 13.678 3.261 C 13.897 3.566 14.095 3.888 14.272 4.229 C 14.449 4.571 14.605 4.922 14.743 5.285 C 14.879 5.647 14.997 6.013 15.094 6.386 C 15.192 6.757 15.277 7.126 15.35 7.491 L 18.392 7.491 L 18.392 7.491 Z  M 13.677 18.739 C 14.189 18.562 14.682 18.333 15.148 18.054 C 15.613 17.777 16.051 17.455 16.455 17.094 C 16.858 16.734 17.226 16.334 17.551 15.902 C 17.879 15.468 18.161 15.001 18.392 14.509 L 15.349 14.509 C 15.274 14.88 15.188 15.248 15.092 15.614 C 14.995 15.987 14.878 16.354 14.741 16.715 C 14.605 17.075 14.448 17.428 14.271 17.77 C 14.094 18.111 13.897 18.434 13.677 18.739 L 13.677 18.739 Z  M 19.187 11 C 19.187 10.19 19.074 9.41 18.849 8.661 L 15.532 8.661 C 15.629 9.437 15.678 10.218 15.678 11 C 15.679 11.782 15.63 12.563 15.532 13.339 L 18.849 13.339 C 19.074 12.59 19.187 11.81 19.187 11 Z " fill-rule="evenodd" fill="rgb(5,196,192)"/></svg>