<?xml version="1.0" standalone="no"?><!-- Generator: Gravit.io --><svg xmlns="http://www.w3.org/2000/svg" xmlns:xlink="http://www.w3.org/1999/xlink" style="isolation:isolate" viewBox="0 0 22.677 22.677" width="22.677px" height="22.677px"><path d=" M 15.626 1.543 C 14.496 1.561 13.416 1.966 12.59 2.792 C 10.869 4.512 10.997 7.326 12.59 9.38 L 5.855 16.09 L 3.846 14.082 L 2.72 15.209 L 4.729 17.217 L 4.287 17.658 L 2.279 15.649 L 1.153 16.776 L 3.161 18.784 L 1.936 20.033 L 3.038 21.135 L 13.691 10.482 C 15.745 12.073 18.558 12.203 20.279 10.482 C 22.171 8.59 21.835 5.376 19.765 3.306 C 18.602 2.143 17.077 1.519 15.626 1.543 Z  M 16.042 3.11 C 16.942 3.187 17.883 3.628 18.663 4.408 C 20.227 5.972 20.362 8.195 19.177 9.38 C 17.992 10.565 15.77 10.43 14.206 8.866 C 12.641 7.301 12.507 5.079 13.691 3.894 C 14.282 3.303 15.143 3.033 16.042 3.11 Z " fill="rgb(6,185,186)"/></svg>