<?xml version="1.0" standalone="no"?><!-- Generator: Gravit.io --><svg xmlns="http://www.w3.org/2000/svg" xmlns:xlink="http://www.w3.org/1999/xlink" style="isolation:isolate" viewBox="0 0 35 35" width="35px" height="35px"><path d=" M 17.5 0.97 C 16.178 0.97 15.021 2.127 15.021 3.45 L 15.021 4.587 C 9.804 5.714 5.929 10.26 5.929 15.847 L 5.929 23.285 L 2.623 27.109 L 2.623 29.071 L 32.377 29.071 L 32.377 27.107 L 29.071 23.285 L 29.071 15.847 C 29.071 10.262 25.196 5.716 19.979 4.585 L 19.979 3.45 C 19.979 2.127 18.822 0.97 17.5 0.97 Z  M 14.194 30.724 C 14.194 32.545 15.678 34.03 17.5 34.03 C 19.322 34.03 20.806 32.545 20.806 30.724 L 14.194 30.724 Z " fill="rgb(100,100,100)"/></svg>