<?xml version="1.0" standalone="no"?><!-- Generator: Gravit.io --><svg xmlns="http://www.w3.org/2000/svg" xmlns:xlink="http://www.w3.org/1999/xlink" style="isolation:isolate" viewBox="0 0 28.346 28.346" width="28.346px" height="28.346px"><path d=" M 6.645 5.139 C 5.404 5.139 4.386 6.157 4.386 7.397 L 4.386 20.949 C 4.386 22.19 5.404 23.208 6.645 23.208 L 21.702 23.208 C 22.943 23.208 23.961 22.19 23.961 20.949 L 23.961 7.397 C 23.961 6.157 22.943 5.139 21.702 5.139 L 6.645 5.139 Z  M 6.645 6.645 L 21.702 6.645 C 22.125 6.645 22.455 6.974 22.455 7.397 L 22.455 8.15 L 5.892 8.15 L 5.892 7.397 C 5.892 6.974 6.221 6.645 6.645 6.645 Z  M 5.892 9.656 L 22.455 9.656 L 22.455 18.69 L 5.892 18.69 L 5.892 9.656 Z  M 5.892 20.196 L 22.455 20.196 L 22.455 20.949 C 22.455 21.372 22.125 21.702 21.702 21.702 L 6.645 21.702 C 6.444 21.704 6.251 21.626 6.109 21.484 C 5.968 21.342 5.889 21.149 5.892 20.949 L 5.892 20.196 Z " fill="rgb(147,149,152)"/></svg>