<?xml version="1.0" standalone="no"?><!-- Generator: Gravit.io --><svg xmlns="http://www.w3.org/2000/svg" xmlns:xlink="http://www.w3.org/1999/xlink" style="isolation:isolate" viewBox="0 0 34.016 28.346" width="34.016px" height="28.346px"><path d=" M 17.008 4.461 C 13.799 4.461 11.18 7.079 11.18 10.288 C 11.18 12.153 12.084 13.802 13.457 14.873 C 12.639 15.2 11.871 15.639 11.173 16.176 C 11.173 16.155 11.18 16.137 11.18 16.116 C 11.18 13.983 9.428 12.231 7.295 12.231 C 5.163 12.231 3.41 13.983 3.41 16.116 C 3.41 17.155 3.836 18.103 4.504 18.802 C 2.641 19.816 1.477 21.764 1.468 23.886 L 3.41 23.886 C 3.407 22.718 3.932 21.611 4.837 20.873 C 5.743 20.135 6.933 19.845 8.076 20.084 C 7.56 21.285 7.295 22.579 7.295 23.886 L 9.238 23.886 C 9.238 19.583 12.705 16.116 17.008 16.116 C 21.311 16.116 24.778 19.583 24.778 23.886 L 26.72 23.886 C 26.72 22.581 26.454 21.291 25.939 20.092 C 26.196 20.04 26.454 20.001 26.72 20.001 C 28.877 20.001 30.605 21.73 30.605 23.886 L 32.548 23.886 C 32.538 21.764 31.375 19.816 29.512 18.802 C 30.18 18.103 30.605 17.155 30.605 16.116 C 30.605 13.983 28.853 12.231 26.72 12.231 C 24.587 12.231 22.835 13.983 22.835 16.116 C 22.835 16.139 22.843 16.155 22.843 16.176 C 22.145 15.638 21.377 15.199 20.559 14.871 C 21.986 13.778 22.827 12.086 22.835 10.288 C 22.835 7.079 20.217 4.461 17.008 4.461 Z  M 17.008 6.403 C 19.164 6.403 20.893 8.132 20.893 10.288 C 20.893 12.444 19.164 14.173 17.008 14.173 C 14.852 14.173 13.123 12.444 13.123 10.288 C 13.123 8.132 14.852 6.403 17.008 6.403 Z  M 7.295 14.173 C 8.381 14.173 9.238 15.03 9.238 16.116 C 9.238 17.202 8.381 18.058 7.295 18.058 C 6.21 18.058 5.353 17.202 5.353 16.116 C 5.353 15.03 6.21 14.173 7.295 14.173 Z  M 26.72 14.173 C 27.806 14.173 28.663 15.03 28.663 16.116 C 28.663 17.202 27.806 18.058 26.72 18.058 C 25.635 18.058 24.778 17.202 24.778 16.116 C 24.778 15.03 25.635 14.173 26.72 14.173 Z " fill="rgb(147,149,152)"/></svg>