<?xml version="1.0" standalone="no"?><!-- Generator: Gravit.io --><svg xmlns="http://www.w3.org/2000/svg" xmlns:xlink="http://www.w3.org/1999/xlink" style="isolation:isolate" viewBox="0 0 22.677 22.677" width="22.677px" height="22.677px"><path d=" M 20.319 20.296 C 20.179 19.677 19.976 19.08 19.712 18.504 C 19.381 17.78 18.958 17.103 18.453 16.489 C 17.432 15.249 16.105 14.297 14.603 13.725 L 14.603 13.725 L 14.603 13.725 C 16.395 12.602 17.482 10.636 17.481 8.521 C 17.487 7.699 17.323 6.885 17.002 6.129 C 16.693 5.399 16.247 4.736 15.688 4.174 C 15.128 3.615 14.464 3.169 13.734 2.861 C 12.986 2.541 12.189 2.382 11.342 2.382 C 10.52 2.376 9.705 2.539 8.949 2.861 C 8.219 3.169 7.556 3.615 6.995 4.174 C 6.436 4.735 5.99 5.399 5.682 6.129 C 5.362 6.877 5.202 7.674 5.202 8.521 C 5.202 9.608 5.455 10.597 5.963 11.493 C 6.472 12.389 7.177 13.132 8.081 13.724 C 7.199 14.051 6.376 14.517 5.64 15.103 C 4.19 16.249 3.117 17.802 2.558 19.564 C 2.481 19.805 2.414 20.049 2.358 20.296 L 3.943 20.296 C 4.121 19.654 4.382 19.038 4.717 18.462 C 5.383 17.324 6.33 16.376 7.469 15.71 C 8.045 15.374 8.661 15.114 9.303 14.936 C 9.959 14.753 10.638 14.661 11.342 14.661 C 12.231 14.657 13.114 14.811 13.95 15.116 C 14.763 15.412 15.521 15.841 16.192 16.387 C 16.863 16.935 17.436 17.591 17.889 18.33 C 18.265 18.942 18.552 19.604 18.741 20.296 L 20.319 20.296 Z  M 6.737 8.521 C 6.737 9.161 6.857 9.758 7.097 10.314 C 7.568 11.416 8.446 12.295 9.549 12.766 C 10.105 13.006 10.702 13.125 11.342 13.125 C 11.973 13.125 12.569 13.006 13.128 12.766 C 14.234 12.298 15.116 11.419 15.586 10.314 C 15.828 9.747 15.951 9.137 15.947 8.52 C 15.95 7.907 15.827 7.299 15.587 6.734 C 15.355 6.186 15.019 5.687 14.597 5.265 C 14.176 4.844 13.678 4.509 13.129 4.276 C 12.564 4.035 11.956 3.913 11.342 3.916 C 10.702 3.916 10.105 4.037 9.549 4.276 C 8.443 4.745 7.564 5.627 7.097 6.734 C 6.856 7.299 6.734 7.907 6.737 8.521 L 6.737 8.521 Z " fill-rule="evenodd" fill="rgb(6,185,186)"/></svg>